<svg width="300" height="300" xmlns="http://www.w3.org/2000/svg">
 <!-- Created with SVG-edit - http://svg-edit.googlecode.com/ -->
 <g>
  <title>Layer 1</title>
 </g>
 <g>
  <title>Layer 2</title>
  <rect fill="#000000" stroke="#000000" stroke-width="0" stroke-linejoin="null" stroke-linecap="null" width="300" height="300" id="svg_36"/>
  <g id="logo__item--logo_0" class="logo__item">
   <g class="logo__item__inner" transform="translate(536.2241821289062,206.5) scale(0.13755156099796295) " id="svg_21">
    <g id="svg_22">
     <g id="svg_23">
      <polygon fill="#77787B" points="-2846.8806152343745,-712.255126953125 -2774.7805175781245,-584.255126953125 -2623.4807128906245,-584.255126953125 -2692.1804199218745,-713.4551391601562 " id="svg_24"/>
      <polygon fill="#383739" points="-2863.8806152343745,-713.9551391601562 -2783.5805664062495,-581.255126953125 -2863.8806152343745,-454.35516357421875 -2941.8806152343745,-583.55517578125 " id="svg_25"/>
      <polygon fill="#5C5D60" points="-2776.3806152343745,-572.6551513671875 -2854.3806152343745,-442.35516357421875 -2700.7805175781245,-442.35516357421875 -2628.5805664062495,-572.6551513671875 " id="svg_26"/>
     </g>
     <g id="svg_27">
      <g id="svg_28">
       <polygon fill="#76CBC8" points="-2931.2805175781245,-989.4552612304688 -2749.1804199218745,-666.255126953125 -2367.2805175781245,-666.255126953125 -2540.5805664062495,-992.3551635742188 " id="svg_29"/>
       <polygon fill="#DE8FD1" points="-3039.9804687499995,-930.6551513671875 -2837.2805175781245,-595.7551879882812 -3039.9804687499995,-275.65509033203125 -3236.7805175781245,-601.6551513671875 " id="svg_30"/>
       <polygon fill="#8EE13E" points="-2737.3806152343745,-539.9551391601562 -2934.1806640624995,-210.95513916015625 -2546.4807128906245,-210.95513916015625 -2364.3806152343745,-539.9551391601562 " id="svg_31"/>
      </g>
      <g id="svg_32">
       <path fill="#FDF490" d="m-2962.480469,-802.555115c-65.400146,52.299927 -107.300049,132.799927 -107.300049,223.099976c0,82.199951 34.800049,156.199951 90.300049,208.300049l142.199951,-224.600098l-125.199951,-206.799927z" id="svg_33"/>
       <path fill="#FFAAAA" d="m-2737.380615,-539.955139l-138.199951,231c28.699951,9.699951 59.5,15 91.5,15c144.300049,0 263.599854,-107.100037 282.800049,-246.100037h-236.100098l0,0.100037z" id="svg_34"/>
       <path fill="#FEBB32" d="m-2511.980713,-666.255127c-36.699951,-115.299988 -144.699951,-198.799988 -272.199707,-198.799988c-24.800293,0 -48.900146,3.199951 -71.900146,9.099976l106.900146,189.700012h237.199707l0,0z" id="svg_35"/>
      </g>
     </g>
    </g>
   </g>
  </g>
  <text fill="#bfbfbf" stroke="#000000" stroke-width="0" stroke-linejoin="null" stroke-linecap="null" x="150" y="210" id="svg_38" font-size="24" font-family="Sans-serif" text-anchor="middle" xml:space="preserve" font-weight="bold">Conference Scheduler</text>
  <text fill="#7f7f7f" stroke="#000000" stroke-width="0" stroke-linejoin="null" stroke-linecap="null" x="150" y="235" id="svg_39" font-size="18" font-family="Sans-serif" text-anchor="middle" xml:space="preserve">Makes scheduling easy</text>
 </g>
</svg>